<svg id="Warstwa_1" data-name="Warstwa 1" xmlns="http://www.w3.org/2000/svg" viewBox="0 0 35.75 34.86"><defs><style>.cls-1{fill:#c179b1;}.cls-2{fill:#ec6669;}.cls-3{fill:#6abd93;}.cls-4{fill:#7eb1e0;}</style></defs><path class="cls-1" d="M98.56,43.59v15h15v-15Zm12.69,12.69H100.87V45.9h10.38Z" transform="translate(-77.8 -43.59)"/><path class="cls-2" d="M106.06,62.82a7.5,7.5,0,1,0,7.5,7.5A7.5,7.5,0,0,0,106.06,62.82Zm0,13a5.5,5.5,0,1,1,5.5-5.5A5.5,5.5,0,0,1,106.06,75.82Z" transform="translate(-77.8 -43.59)"/><path class="cls-3" d="M86.46,43.59l-8.66,15H95.12Zm0,3.5,5.78,10H80.69Z" transform="translate(-77.8 -43.59)"/><rect class="cls-4" x="85.46" y="59.82" width="2" height="21" transform="translate(119.52 15.31) rotate(135)"/><rect class="cls-4" x="85.46" y="59.82" width="2" height="21" transform="translate(20.08 137.58) rotate(-135)"/></svg>